<?xml version="1.0" standalone="no"?>
<!DOCTYPE svg PUBLIC "-//W3C//DTD SVG 20010904//EN"
 "http://www.w3.org/TR/2001/REC-SVG-20010904/DTD/svg10.dtd">
<svg version="1.0" xmlns="http://www.w3.org/2000/svg"
 width="50.000000pt" height="50.000000pt" viewBox="0 0 50.000000 50.000000"
 preserveAspectRatio="xMidYMid meet">
<metadata>
Created by potrace 1.11, written by Peter Selinger 2001-2013
</metadata>
<g transform="translate(0.000000,50.000000) scale(0.100000,-0.100000)"
fill="#000000" stroke="none">
<path d="M205 417 c-27 -27 -40 -33 -65 -29 -30 4 -70 -19 -70 -40 0 -5 -16
-24 -35 -42 -51 -49 -43 -121 16 -152 32 -16 139 -19 139 -4 0 6 -27 10 -60
10 -51 0 -65 4 -85 25 -33 32 -32 70 3 105 16 15 36 40 46 55 15 23 23 26 52
22 28 -5 38 -1 68 29 27 27 42 34 74 34 55 0 100 -38 108 -91 5 -30 12 -41 31
-45 27 -7 53 -40 53 -67 0 -10 -11 -29 -25 -42 -20 -21 -34 -25 -85 -25 -33 0
-60 -4 -60 -10 0 -6 29 -10 66 -10 59 0 68 3 95 29 44 44 35 107 -19 135 -20
10 -31 26 -36 47 -3 17 -21 46 -40 65 -30 30 -40 34 -86 34 -46 0 -56 -4 -85
-33z"/>
</g>
</svg>
